<?xml version="1.0" standalone="no"?>
<!DOCTYPE svg PUBLIC "-//W3C//DTD SVG 20010904//EN"
 "http://www.w3.org/TR/2001/REC-SVG-20010904/DTD/svg10.dtd">
<svg version="1.0" xmlns="http://www.w3.org/2000/svg"
 width="800.000000pt" height="800.000000pt" viewBox="0 0 800.000000 800.000000"
 preserveAspectRatio="xMidYMid meet">
<metadata>
Created by potrace 1.14, written by Peter Selinger 2001-2017
</metadata>
<g transform="translate(0.000000,800.000000) scale(0.100000,-0.100000)"
fill="#000000" stroke="none">
<path d="M1717 7994 c-1 -1 -36 -4 -77 -8 -357 -30 -666 -309 -743 -671 -22
-102 -16 -307 12 -404 42 -144 122 -281 221 -381 79 -78 212 -164 302 -193 15
-5 16 -66 16 -771 0 -874 -4 -829 83 -916 53 -53 118 -80 194 -80 26 0 173 45
411 126 203 69 482 164 619 210 138 47 325 111 417 142 l166 56 74 -75 c116
-119 235 -189 389 -230 109 -30 298 -32 404 -5 299 77 532 307 617 611 31 112
31 324 0 436 -64 234 -210 422 -412 532 -128 70 -227 97 -370 102 -248 8 -455
-76 -629 -254 -138 -140 -221 -322 -237 -513 -4 -43 -8 -78 -9 -78 -1 0 -147
-50 -326 -111 -178 -61 -434 -148 -569 -194 -135 -45 -253 -86 -262 -90 -16
-6 -17 31 -16 545 1 498 2 552 17 557 91 29 225 118 311 207 151 156 229 341
235 561 6 229 -55 414 -191 579 -120 146 -317 266 -479 292 -51 8 -165 21
-168 18z m125 -584 c113 -53 186 -186 171 -308 -21 -169 -191 -293 -353 -257
-76 16 -136 57 -181 122 -119 171 -27 412 176 463 48 12 141 2 187 -20z m2238
-1495 c91 -20 174 -99 208 -199 41 -121 -1 -253 -106 -333 -186 -141 -459 -5
-467 233 -6 198 169 342 365 299z"/>
<path d="M6125 7974 c-390 -87 -667 -436 -666 -838 1 -95 3 -110 27 -214 54
-236 261 -479 485 -570 l54 -22 -1 -693 c-1 -380 -2 -695 -3 -699 0 -4 -16
-11 -33 -17 -18 -5 -226 -75 -463 -156 -236 -81 -542 -185 -680 -232 -137 -46
-362 -123 -500 -170 -137 -47 -295 -100 -350 -118 -55 -18 -253 -86 -440 -150
-187 -64 -385 -132 -440 -150 -55 -19 -287 -97 -515 -175 -228 -78 -540 -183
-692 -235 -152 -51 -292 -101 -311 -110 -51 -24 -97 -73 -125 -133 l-24 -54 0
-790 0 -789 -26 -10 c-259 -93 -485 -366 -529 -638 -5 -25 -8 -104 -7 -176 0
-102 5 -147 23 -209 86 -307 330 -541 641 -612 58 -14 267 -13 330 1 269 57
484 227 596 471 66 142 79 205 78 379 0 103 -5 147 -23 210 -70 250 -243 453
-478 560 l-61 28 0 658 c0 363 1 659 2 659 2 0 63 21 137 46 142 49 732 250
1529 520 267 91 598 204 735 251 138 46 381 129 540 183 160 54 490 167 735
250 245 84 510 174 588 201 201 68 234 89 288 189 18 33 19 73 24 873 l5 839
50 21 c151 65 312 207 392 344 43 74 96 210 108 279 12 64 14 237 4 290 -5 27
-11 60 -14 74 -9 49 -46 145 -81 209 -108 196 -268 330 -484 402 -83 28 -111
32 -225 35 -93 3 -150 -1 -200 -12z m293 -564 c187 -81 233 -333 88 -482 -143
-147 -384 -106 -472 79 -118 251 131 513 384 403z m-4568 -6289 c136 -72 202
-248 142 -384 -88 -199 -334 -245 -484 -90 -136 141 -97 376 78 470 54 29 66
32 139 30 61 -2 91 -9 125 -26z"/>
<path d="M6268 3345 c-2 -2 -16 -6 -30 -9 -15 -2 -62 -17 -105 -32 -43 -14
-188 -64 -323 -109 -135 -46 -384 -131 -555 -190 -170 -58 -317 -108 -325
-110 -8 -2 -68 -22 -134 -45 l-119 -41 -53 60 c-191 211 -478 310 -756 261
-259 -45 -476 -205 -606 -449 -104 -192 -120 -461 -42 -685 73 -212 266 -414
475 -498 524 -211 1099 148 1151 718 3 38 7 69 8 70 0 0 102 35 226 76 124 42
380 129 570 193 190 65 352 118 360 119 13 1 15 -65 15 -506 l0 -508 -50 -21
c-199 -84 -372 -260 -453 -462 -186 -462 50 -979 517 -1137 88 -29 130 -35
261 -35 136 0 177 7 283 46 142 51 290 161 384 284 70 91 138 247 158 360 14
78 13 246 -2 313 -8 37 -16 77 -19 88 -12 62 -83 202 -139 274 -88 115 -227
223 -349 271 l-41 17 -5 743 c-6 826 -1 776 -74 857 -41 45 -109 78 -178 85
-25 3 -48 4 -50 2z m-2174 -769 c211 -64 279 -337 122 -497 -156 -160 -424
-91 -489 126 -37 128 9 256 121 334 69 49 161 62 246 37z m2318 -1450 c189
-84 240 -321 103 -474 -101 -113 -267 -130 -388 -42 -142 104 -163 311 -47
444 81 92 220 122 332 72z"/>
</g>
</svg>
