<svg xmlns="http://www.w3.org/2000/svg" viewBox="0 0 112.67 27.35"><defs><style>.cls-1{fill:#b3b4b4;}</style></defs><g id="Layer_2" data-name="Layer 2"><g id="Layer_1-2" data-name="Layer 1"><path class="cls-1" d="M1.86,24.43a1,1,0,0,1,1-1A1,1,0,0,1,3.8,24a1,1,0,0,1,.09.42,1,1,0,1,1-2,0M18.54,1.88a1,1,0,0,1,1,1,1,1,0,0,1-.09.42,1,1,0,0,1-1.85,0,1,1,0,0,1-.09-.42,1,1,0,0,1,1-1M3.8,21.67V17.15l15-5.12a.94.94,0,0,0,.63-.89V5.68a2.88,2.88,0,1,0-1.85,0v4.78l-15,5.12a.92.92,0,0,0-.63.89v5.2a2.92,2.92,0,0,0,.92,5.68,2.92,2.92,0,0,0,.93-5.68"/><path class="cls-1" d="M3.89,2.92a1,1,0,0,1-.09.42A1,1,0,0,1,2.87,4a1,1,0,0,1-1-1,1,1,0,0,1,1-1,1,1,0,0,1,1,1m6.82,4.14a1,1,0,0,1,0,2.07h-.1a1,1,0,0,1-.92-1,1,1,0,0,1,1-1M2,5.67v5.09a1,1,0,0,0,.38.77,1,1,0,0,0,.54.17.79.79,0,0,0,.3,0L8.43,9.86A2.85,2.85,0,0,0,10.71,11,2.92,2.92,0,1,0,7.84,8.08l-4,1.37V5.67A2.92,2.92,0,0,0,2.87,0,2.92,2.92,0,0,0,2,5.67"/><path class="cls-1" d="M17.53,24.43a1,1,0,0,1,1-1,1,1,0,0,1,.93.61,1,1,0,0,1,.09.42,1,1,0,1,1-2,0m-6.82-3.89a1,1,0,0,1,0-2.06h.1a1,1,0,0,1,.92,1,1,1,0,0,1-.33.76,1,1,0,0,1-.69.27m8.76,1.13V16.84A.93.93,0,0,0,18.25,16L13,17.74a2.93,2.93,0,1,0,.59,1.79l4-1.38v3.52a2.88,2.88,0,1,0,1.85,0"/><path class="cls-1" d="M35.11,9.43a.88.88,0,0,0-.63.22.65.65,0,0,0-.24.5V13H30.93V10.15a.66.66,0,0,0-.24-.5.85.85,0,0,0-.6-.22.87.87,0,0,0-.62.22.65.65,0,0,0-.24.5v7.06a.66.66,0,0,0,.24.5.92.92,0,0,0,.62.22.85.85,0,0,0,.6-.22.68.68,0,0,0,.24-.5V14.55h3.31v2.66a.68.68,0,0,0,.24.5.93.93,0,0,0,.63.22.86.86,0,0,0,.59-.22.68.68,0,0,0,.24-.5V10.15a.65.65,0,0,0-.24-.5.82.82,0,0,0-.59-.22"/><path class="cls-1" d="M53.81,12.08v.24a.75.75,0,0,1-.31.63,1.86,1.86,0,0,1-1.12.26H51V11.07h1.43a1.73,1.73,0,0,1,1.12.28.89.89,0,0,1,.31.73m.45,2a2,2,0,0,0,.94-.73,2.1,2.1,0,0,0,.31-1.16v-.09a3.11,3.11,0,0,0-.17-1,1.93,1.93,0,0,0-.54-.81,2.47,2.47,0,0,0-1-.52,5.05,5.05,0,0,0-1.44-.18H50.12a.9.9,0,0,0-.62.21.66.66,0,0,0-.25.51v6.89a.72.72,0,0,0,.24.52.85.85,0,0,0,.63.24.84.84,0,0,0,.59-.21.62.62,0,0,0,.24-.49V14.67h1.79l1.35,2.92a.69.69,0,0,0,.44.31.76.76,0,0,0,.21,0,.94.94,0,0,0,.42-.11,1,1,0,0,0,.44-.5.55.55,0,0,0-.05-.55Z"/><path class="cls-1" d="M63.37,12.94v1.65a1.58,1.58,0,0,1-.43,1.21,1.77,1.77,0,0,1-1.24.41H60.41V11.15H61.7a1.57,1.57,0,0,1,1.23.47,1.88,1.88,0,0,1,.44,1.32m.89-2.35a3,3,0,0,0-1.06-.75,3.65,3.65,0,0,0-1.5-.28H59.58a.92.92,0,0,0-.63.21.71.71,0,0,0-.23.51v6.8a.71.71,0,0,0,.23.51.92.92,0,0,0,.63.21H61.7a4,4,0,0,0,1.5-.26,2.85,2.85,0,0,0,1.06-.72,2.92,2.92,0,0,0,.62-1.07,4.21,4.21,0,0,0,.19-1.3V13.07a4.66,4.66,0,0,0-.19-1.36,3.07,3.07,0,0,0-.62-1.12"/><path class="cls-1" d="M85.73,14.55H83.86l.93-2.7ZM86,10s-.21-.58-1.16-.58-1.17.6-1.17.6L81.22,17a.65.65,0,0,0,.09.55.86.86,0,0,0,.55.37.77.77,0,0,0,.25,0,.86.86,0,0,0,.38-.1.72.72,0,0,0,.38-.41L83.34,16h2.91l.47,1.35a.69.69,0,0,0,.37.42,1,1,0,0,0,1.19-.32.72.72,0,0,0,.08-.55Z"/><path class="cls-1" d="M96,12.08v.24a.75.75,0,0,1-.31.63,1.86,1.86,0,0,1-1.12.26H93.14V11.07h1.43a1.68,1.68,0,0,1,1.11.28.87.87,0,0,1,.32.73m.45,2a2,2,0,0,0,.94-.73,2.18,2.18,0,0,0,.31-1.16v-.09a3.11,3.11,0,0,0-.17-1,2,2,0,0,0-.54-.81,2.47,2.47,0,0,0-1-.52,9.79,9.79,0,0,0-2-.18H92.31a.88.88,0,0,0-.62.21.66.66,0,0,0-.25.51v6.89a.72.72,0,0,0,.24.52.85.85,0,0,0,.63.24.84.84,0,0,0,.59-.21.62.62,0,0,0,.24-.49V14.67h1.79l1.35,2.92a.69.69,0,0,0,.44.31.76.76,0,0,0,.21,0,.94.94,0,0,0,.42-.11,1,1,0,0,0,.44-.5.55.55,0,0,0-.05-.55Z"/><path class="cls-1" d="M101.77,9.43a.88.88,0,0,0-.63.22.65.65,0,0,0-.24.5v7a.68.68,0,0,0,.24.51.92.92,0,0,0,.63.21.85.85,0,0,0,.59-.21.68.68,0,0,0,.24-.51v-7a.65.65,0,0,0-.24-.5.8.8,0,0,0-.59-.22"/><path class="cls-1" d="M109.16,16.31a2.4,2.4,0,0,1-1.41-.39,1.86,1.86,0,0,1-.41-1.36V12.81a1.86,1.86,0,0,1,.41-1.36,2.4,2.4,0,0,1,1.41-.39,2.33,2.33,0,0,1,1.41.39,1.86,1.86,0,0,1,.4,1.36v1.75a1.86,1.86,0,0,1-.4,1.36,2.33,2.33,0,0,1-1.41.39m3.32-4.82a3,3,0,0,0-.59-1.08,3,3,0,0,0-1-.72,5.25,5.25,0,0,0-1.71-.26,5.19,5.19,0,0,0-1.7.26,2.81,2.81,0,0,0-1,.72,3,3,0,0,0-.6,1.08,4.62,4.62,0,0,0-.19,1.32v1.74a4.68,4.68,0,0,0,.19,1.32,3,3,0,0,0,.6,1.08,2.81,2.81,0,0,0,1,.72,5.19,5.19,0,0,0,1.7.26,5.25,5.25,0,0,0,1.71-.26,3,3,0,0,0,1-.72,3,3,0,0,0,.59-1.08,4.34,4.34,0,0,0,.19-1.32V12.81a4.3,4.3,0,0,0-.19-1.32"/><path class="cls-1" d="M79,9.91a.83.83,0,0,0-.48-.44.78.78,0,0,0-.65,0,.77.77,0,0,0-.42.48L75.89,14.5,74.34,10a.85.85,0,0,0-.8-.57.83.83,0,0,0-.79.57L71.19,14.5,69.63,10a.83.83,0,0,0-.43-.49.79.79,0,0,0-.64,0,.88.88,0,0,0-.51,1.09l2.35,6.78a.82.82,0,0,0,.79.59.84.84,0,0,0,.79-.58l1.56-4.5,1.55,4.49a.84.84,0,0,0,1.59,0L79,10.56a.86.86,0,0,0,0-.65"/><path class="cls-1" d="M43.54,14.55H41.67l.93-2.71ZM43.77,10s-.22-.58-1.17-.58a1.14,1.14,0,0,0-1.16.6L39,17a.69.69,0,0,0,.09.55.9.9,0,0,0,.55.38l.25,0a.85.85,0,0,0,.38-.09.74.74,0,0,0,.38-.42L41.15,16h2.91l.47,1.35a.7.7,0,0,0,.37.41.87.87,0,0,0,.64.06.83.83,0,0,0,.55-.37.67.67,0,0,0,.08-.56Z"/></g></g></svg>