<svg xmlns="http://www.w3.org/2000/svg" viewBox="0 0 415.2 182.36"><defs><style>.cls-1{fill:#353688;}</style></defs><g id="Layer_2" data-name="Layer 2"><g id="Layer_1-2" data-name="Layer 1"><path class="cls-1" d="M12.38,162.91a6.94,6.94,0,0,1,.6-2.81,6.73,6.73,0,0,1,12.37,0,6.93,6.93,0,0,1,.59,2.81,6.78,6.78,0,1,1-13.56,0M123.66,12.57a6.83,6.83,0,0,1,6.78,6.88,7,7,0,0,1-.6,2.82,6.73,6.73,0,0,1-12.37,0,7,7,0,0,1-.6-2.82,6.84,6.84,0,0,1,6.79-6.88m-98.31,132V114.33l100.28-34.1a6.3,6.3,0,0,0,4.21-6V37.84a19.16,19.16,0,1,0-12.37,0V69.75L17.19,103.86a6.26,6.26,0,0,0-4.21,6v34.7a19.48,19.48,0,0,0,6.18,37.84,19.48,19.48,0,0,0,6.19-37.84"/><path class="cls-1" d="M25.94,19.45a6.9,6.9,0,0,1-.6,2.81,6.73,6.73,0,0,1-12.37,0,6.93,6.93,0,0,1-.59-2.81,6.78,6.78,0,1,1,13.56,0M71.41,47.1a6.88,6.88,0,0,1,0,13.76,4.72,4.72,0,0,1-.66,0,6.91,6.91,0,0,1-3.92-11.92,6.71,6.71,0,0,1,4.58-1.81M13,37.84V71.76a6.28,6.28,0,0,0,2.58,5.09,6.06,6.06,0,0,0,5.58.86L56.21,65.78a19,19,0,0,0,15.2,7.65A19.45,19.45,0,1,0,52.26,53.87L25.34,63V37.84A19.48,19.48,0,0,0,19.16,0,19.48,19.48,0,0,0,13,37.84"/><path class="cls-1" d="M116.88,162.91a6.93,6.93,0,0,1,.59-2.81,6.73,6.73,0,0,1,12.37,0,6.94,6.94,0,0,1,.6,2.81,6.78,6.78,0,1,1-13.56,0M71.41,137a6.88,6.88,0,0,1,0-13.76c.23,0,.44,0,.66,0A6.91,6.91,0,0,1,76,135.17,6.67,6.67,0,0,1,71.41,137m58.43,7.54V112.33a6.33,6.33,0,0,0-2.57-5.1,6.12,6.12,0,0,0-5.58-.86L86.6,118.31a19,19,0,0,0-15.19-7.66,19.45,19.45,0,1,0,19.15,19.56l26.91-9.15v23.46a19.16,19.16,0,1,0,12.37,0"/><path class="cls-1" d="M188.65,84.17a17.64,17.64,0,0,1-2.63-.23,26.6,26.6,0,0,1-3.27-.69,29.66,29.66,0,0,1-3.38-1.11,16.53,16.53,0,0,1-3-1.54,8.93,8.93,0,0,1-2.2-2,4,4,0,0,1-.86-2.49c0-2.06,1.24-3.09,3.7-3.09a4.55,4.55,0,0,1,2.14.63,14.17,14.17,0,0,1,1.71,1.21,10.88,10.88,0,0,0,3.41,1.87,13.26,13.26,0,0,0,4.69.82,7.69,7.69,0,0,0,4.49-1.15,4.13,4.13,0,0,0,1.63-3.64,4.4,4.4,0,0,0-1.53-3.45,15.51,15.51,0,0,0-3.87-2.39q-2.35-1.05-5-2a26.48,26.48,0,0,1-5-2.46,13.25,13.25,0,0,1-3.88-3.68,9.58,9.58,0,0,1-1.53-5.61,12,12,0,0,1,1-5,11.16,11.16,0,0,1,2.84-3.87,12.62,12.62,0,0,1,4.55-2.53,19.69,19.69,0,0,1,6.12-.89,21.53,21.53,0,0,1,6.23.82,18.31,18.31,0,0,1,4.48,2,10,10,0,0,1,2.73,2.47,3.93,3.93,0,0,1,.93,2.13,3.6,3.6,0,0,1-.82,2.46,3.42,3.42,0,0,1-2.74,1,4.39,4.39,0,0,1-2-.45,11.61,11.61,0,0,1-1.68-1.06,15.61,15.61,0,0,0-2.63-1.51,11.24,11.24,0,0,0-4.76-.85,6.63,6.63,0,0,0-4.2,1.28,4.43,4.43,0,0,0-1.64,3.71,4.1,4.1,0,0,0,1.53,3.35A15.79,15.79,0,0,0,188,58.37c1.54.66,3.22,1.31,5,2a25.91,25.91,0,0,1,5,2.46,13.49,13.49,0,0,1,3.85,3.71,10.11,10.11,0,0,1,1.52,5.78,10.6,10.6,0,0,1-3.91,8.7Q195.55,84.17,188.65,84.17Z"/><path class="cls-1" d="M246.69,41.5a4.46,4.46,0,0,1,3.1,1,3.35,3.35,0,0,1,1,2.59,3.21,3.21,0,0,1-1,2.47,4.46,4.46,0,0,1-3.1,1h-9.31V81.09a2.76,2.76,0,0,1-1.11,2.13,4.32,4.32,0,0,1-3,1,4.7,4.7,0,0,1-3.13-1,2.74,2.74,0,0,1-1.14-2.13V48.46h-8.39a4.37,4.37,0,0,1-2.95-1A3.11,3.11,0,0,1,216.6,45a3.24,3.24,0,0,1,1.11-2.59,4.37,4.37,0,0,1,2.95-1Z"/><path class="cls-1" d="M291.69,42.45a3.39,3.39,0,0,1,1,2.59,3.24,3.24,0,0,1-1,2.47,4.35,4.35,0,0,1-3,1H272.73V58.77H283.4a4.38,4.38,0,0,1,3.09.95,3.34,3.34,0,0,1,1,2.59,3.17,3.17,0,0,1-1,2.46,4.38,4.38,0,0,1-3.09,1H272.73V76.56h15.93a4.35,4.35,0,0,1,3,1,3.37,3.37,0,0,1,1,2.59,3.24,3.24,0,0,1-1,2.47,4.35,4.35,0,0,1-3,1h-20a4.77,4.77,0,0,1-3.09-1,2.75,2.75,0,0,1-1.17-2.14V44.58a2.75,2.75,0,0,1,1.17-2.13,4.77,4.77,0,0,1,3.09-1h20A4.35,4.35,0,0,1,291.69,42.45Z"/><path class="cls-1" d="M329.35,71.63a4.51,4.51,0,0,1-2.85-.88,7.7,7.7,0,0,1-1.77-1.87l-7.9-15.3V81.09a2.78,2.78,0,0,1-1.1,2.13,4.34,4.34,0,0,1-3,1,4.72,4.72,0,0,1-3.1-1,2.72,2.72,0,0,1-1.17-2.13V43.93a2.75,2.75,0,0,1,1.17-2.14,4.78,4.78,0,0,1,3.1-.95H314a6.54,6.54,0,0,1,3.05.63,4.43,4.43,0,0,1,1.85,1.67l10.46,19.43,10.46-19.43a5.39,5.39,0,0,1,5-2.36l1.13.06a4.76,4.76,0,0,1,3.13.95,2.77,2.77,0,0,1,1.14,2.14V81.09a2.74,2.74,0,0,1-1.14,2.13,4.7,4.7,0,0,1-3.13,1,4.24,4.24,0,0,1-2.88-1,2.78,2.78,0,0,1-1.1-2.13V53.58l-8,15.3a6.81,6.81,0,0,1-1.7,1.87A4.63,4.63,0,0,1,329.35,71.63Z"/><path class="cls-1" d="M201.63,108.1a3.36,3.36,0,0,1,1,2.6,3.17,3.17,0,0,1-1,2.46,4.32,4.32,0,0,1-3,1H183.39v11h10.74a4.29,4.29,0,0,1,3,1,3.34,3.34,0,0,1,1,2.59,3.17,3.17,0,0,1-1,2.46,4.29,4.29,0,0,1-3,1H183.39v14.7a2.79,2.79,0,0,1-1.11,2.14,4.37,4.37,0,0,1-2.95,1,4.77,4.77,0,0,1-3.09-1,2.73,2.73,0,0,1-1.18-2.14v-36.5a2.73,2.73,0,0,1,1.18-2.14,4.77,4.77,0,0,1,3.09-.95h19.28A4.32,4.32,0,0,1,201.63,108.1Z"/><path class="cls-1" d="M217.1,110.24a2.73,2.73,0,0,1,1.18-2.14,4.77,4.77,0,0,1,3.09-.95h10a31.07,31.07,0,0,1,8.11.92,14.46,14.46,0,0,1,5.37,2.59,9.87,9.87,0,0,1,3,4,14,14,0,0,1,.93,5.22v.46a9.79,9.79,0,0,1-1.67,5.74q-1.68,2.4-5.87,3.85l7.89,14.9a2,2,0,0,1,.22,2.26,4.82,4.82,0,0,1-2.21,2.27,4.58,4.58,0,0,1-3.06.36,3.35,3.35,0,0,1-2.13-1.35l-8-15.75a11.53,11.53,0,0,1-1.21.06h-7.32v14.18a2.6,2.6,0,0,1-1.11,2.07,4.57,4.57,0,0,1-2.95.89,4.45,4.45,0,0,1-3.09-1.05,3,3,0,0,1-1.18-2.23Zm8.33,3.48v12.67h6c3.22,0,5.54-.5,6.94-1.51a4.61,4.61,0,0,0,2.09-3.87v-1.25a5.29,5.29,0,0,0-2.09-4.43c-1.4-1.08-3.72-1.61-6.94-1.61Z"/><path class="cls-1" d="M264.48,109.58a2.74,2.74,0,0,1,1.14-2.13,4.67,4.67,0,0,1,3.12-1,4.37,4.37,0,0,1,2.92,1,2.74,2.74,0,0,1,1.14,2.13v37.1a2.75,2.75,0,0,1-1.14,2.13,4.42,4.42,0,0,1-2.92.95,4.73,4.73,0,0,1-3.12-.95,2.75,2.75,0,0,1-1.14-2.13Z"/><path class="cls-1" d="M290.58,110.24a2.77,2.77,0,0,1,1.14-2.14,4.76,4.76,0,0,1,3.13-.95H304a22.71,22.71,0,0,1,8.39,1.41,16.67,16.67,0,0,1,5.87,3.81A14.88,14.88,0,0,1,321.7,118a21.28,21.28,0,0,1,1.11,6.93v7.28a19.38,19.38,0,0,1-1.11,6.63,14.19,14.19,0,0,1-3.41,5.39,16.17,16.17,0,0,1-5.87,3.61,24.35,24.35,0,0,1-8.39,1.31h-9.18a4.76,4.76,0,0,1-3.13-.95,2.75,2.75,0,0,1-1.14-2.13Zm8.33,3.87v28.1H304q4.91,0,7.68-2.36c1.85-1.58,2.77-3.87,2.77-6.9v-8.66a10,10,0,0,0-2.77-7.49,10.58,10.58,0,0,0-7.68-2.69Z"/><path class="cls-1" d="M372.81,145.56a2.66,2.66,0,0,1-.42,2.33,4.26,4.26,0,0,1-2.71,1.68,4.78,4.78,0,0,1-3.16-.27,3,3,0,0,1-1.74-1.77l-2.57-7.62h-15.5l-2.63,7.69a3.36,3.36,0,0,1-1.82,1.77,4.61,4.61,0,0,1-3.09.26,4.35,4.35,0,0,1-2.74-1.67,2.6,2.6,0,0,1-.46-2.33l13.94-36.38a3.65,3.65,0,0,1,1.6-1.93,5.92,5.92,0,0,1,6,0,3.69,3.69,0,0,1,1.64,1.93Zm-23.9-12.08H360l-5.48-16.28Z"/><path class="cls-1" d="M393.09,133.48l-12.88-21.73a2.39,2.39,0,0,1-.43-2.27,3.66,3.66,0,0,1,1.85-2.2,5,5,0,0,1,3.2-.69,3.68,3.68,0,0,1,2.35,1.15l10.24,18.58,10.32-18.58a3.68,3.68,0,0,1,2.35-1.15,5,5,0,0,1,3.2.69,3.5,3.5,0,0,1,1.81,2.2,2.56,2.56,0,0,1-.39,2.27L401.34,134.2v12.48a2.78,2.78,0,0,1-1.11,2.13,4.26,4.26,0,0,1-2.88.95,4.77,4.77,0,0,1-3.13-.95,2.74,2.74,0,0,1-1.13-2.13Z"/></g></g></svg>